<svg xmlns="http://www.w3.org/2000/svg" width="302.2080078125" height="419.36181640625" viewBox="-58.599891662597656 -104.09810638427734 302.2080078125 419.36181640625"><title>Neo4j Graph Visualization</title><desc>Created using Neo4j (http://www.neo4j.com/)</desc><g class="layer relationships"><g class="relationship" transform="translate(57.411323530021534 -19.94909429025728) rotate(196.2424734980704)"><path class="outline" fill="#A5ABB6" stroke="none" d="M 24.018736134675446,-6.953439040707552 L 24.277555179777966,-5.987513214418485 A 72.77440828177089 72.77440828177089 0 0 1 32.19863813482871,-7.6441504831464755 L 32.048663436826644,-8.63284031821064 A 73.77440828177089 73.77440828177089 0 0 0 24.018736134675446,-6.953439040707552 Z M 51.456749069185996,-8.993886428334989 L 51.34365035075031,-8.00030267248539 A 72.77440828177089 72.77440828177089 0 0 1 59.32086785003918,-6.63941943356531 L 58.65272460324899,-3.7147682403854 L 66.25641117525733,-5.5678603899181995 L 60.21172551242609,-10.53895435780519 L 59.543582265635905,-7.61430316462528 A 73.77440828177089 73.77440828177089 0 0 0 51.456749069185996,-8.993886428334989"/><text text-anchor="middle" pointer-events="none" font-size="8px" fill="#000000" x="41.75007948968748" y="-5.954565413672498" transform="rotate(180 41.75007948968748 -8.954565413672498)" font-family="sans-serif">trek</text></g><g class="relationship" transform="translate(-29.59988963150513 -45.29814956498958) rotate(346.7653710721336)"><path class="outline" fill="#A5ABB6" stroke="none" d="M 21.40063509461097,-12.933012701892217 L 21.90063509461097,-12.06698729810778 A 83.29873380654062 83.29873380654062 0 0 1 51.83897915098349,-22.399562745280235 L 51.69838850438259,-23.38963055613378 A 84.29873380654062 84.29873380654062 0 0 0 21.40063509461097,-12.933012701892217 Z M 71.10017233251305,-23.888107268949398 L 71.01060787532964,-22.892126241012903 A 83.29873380654062 83.29873380654062 0 0 1 101.44003900229677,-14.11053859990768 L 100.07543109268265,-11.438863984049945 L 107.9013810909005,-11.371732580117685 L 103.2595162151156,-17.672771421051326 L 101.89490830550147,-15.001096805193592 A 84.29873380654062 84.29873380654062 0 0 0 71.10017233251305,-23.888107268949398"/><text text-anchor="middle" pointer-events="none" font-size="8px" fill="#000000" x="61.39772889210965" y="-20.699257648550912" font-family="sans-serif">trek</text></g><g class="relationship" transform="translate(97.108347985277 -75.09810382851649) rotate(431.42647741073233)"><path class="outline" fill="#A5ABB6" stroke="none" d="M 21.40063509461097,12.933012701892217 L 21.90063509461097,12.06698729810778 A 76.92942902375029 76.92942902375029 0 0 0 48.734101123459965,21.48920719035206 L 48.5829073783532,22.47771133877056 A 77.92942902375029 77.92942902375029 0 0 1 21.40063509461097,12.933012701892217 Z M 67.98614921794426,23.00005840179115 L 67.88835818178595,22.004851431735645 A 76.92942902375029 76.92942902375029 0 0 0 95.18989531071458,14.039978726103111 L 93.83185017196239,11.364962202581891 L 101.65794138872278,11.31704282293488 L 97.00062216238415,17.606667424131405 L 95.64257702363196,14.931650900610183 A 77.92942902375029 77.92942902375029 0 0 1 67.98614921794426,23.00005840179115"/><text text-anchor="middle" pointer-events="none" font-size="8px" fill="#000000" x="58.281657227027644" y="25.84553443576138" font-family="sans-serif">trek</text></g><g class="relationship" transform="translate(136.58898144494825 42.39580687948445) rotate(410.7960670472404)"><path class="outline" fill="#A5ABB6" stroke="none" d="M 25 0.5 L 48.54797986665979 0.5 L 48.54797986665979 -0.5 L 25 -0.5 Z M 67.88391736665979 0.5 L 91.43189723331957 0.5 L 91.43189723331957 3.5 L 98.43189723331957 0 L 91.43189723331957 -3.5 L 91.43189723331957 -0.5 L 67.88391736665979 -0.5 Z"/><text text-anchor="middle" pointer-events="none" font-size="8px" fill="#000000" x="58.21594861665979" y="3" font-family="sans-serif">trek</text></g><g class="relationship" transform="translate(57.411323530021534 -19.94909429025728) rotate(196.2424734980704)"><path class="outline" fill="#A5ABB6" stroke="none" d="M 24.018736134675446,6.953439040707552 L 24.277555179777966,5.987513214418485 A 72.77440828177089 72.77440828177089 0 0 0 30.88679757523164,7.432887829539794 L 30.71879675251663,8.418674684578491 A 73.77440828177089 73.77440828177089 0 0 1 24.018736134675446,6.953439040707552 Z M 52.79366106116307,8.829330533956607 L 52.66244072002496,7.83797730625642 A 72.77440828177089 72.77440828177089 0 0 0 59.32086785003918,6.63941943356531 L 58.65272460324899,3.7147682403854 L 66.25641117525733,5.5678603899181995 L 60.21172551242609,10.53895435780519 L 59.543582265635905,7.61430316462528 A 73.77440828177089 73.77440828177089 0 0 1 52.79366106116307,8.829330533956607"/><text text-anchor="middle" pointer-events="none" font-size="8px" fill="#000000" x="41.75007948968749" y="11.954565413672498" transform="rotate(180 41.75007948968749 8.954565413672498)" font-family="sans-serif">road</text></g><g class="relationship" transform="translate(-29.59988963150513 -45.29814956498958) rotate(346.7653710721336)"><path class="outline" fill="#A5ABB6" stroke="none" d="M 25 0.5 L 50.57680873652416 0.5 L 50.57680873652416 -0.5 L 25 -0.5 Z M 72.58852748652416 0.5 L 98.16533622304831 0.5 L 98.16533622304831 3.5 L 105.16533622304831 0 L 98.16533622304831 -3.5 L 98.16533622304831 -0.5 L 72.58852748652416 -0.5 Z"/><text text-anchor="middle" pointer-events="none" font-size="8px" fill="#000000" x="61.58266811152416" y="3" font-family="sans-serif">road</text></g><g class="relationship" transform="translate(-29.59988963150513 -45.29814956498958) rotate(346.7653710721336)"><path class="outline" fill="#A5ABB6" stroke="none" d="M 21.40063509461097,12.933012701892217 L 21.90063509461097,12.06698729810778 A 83.29873380654062 83.29873380654062 0 0 0 38.700692036646316,19.434084782790706 L 38.402376458177294,20.388552076962014 A 84.29873380654062 84.29873380654062 0 0 1 21.40063509461097,12.933012701892217 Z M 84.532750269144,21.573748103365816 L 84.2838408570594,20.605221333175294 A 83.29873380654062 83.29873380654062 0 0 0 101.44003900229677,14.11053859990768 L 100.07543109268265,11.438863984049945 L 107.9013810909005,11.371732580117685 L 103.2595162151156,17.672771421051326 L 101.89490830550147,15.001096805193592 A 84.29873380654062 84.29873380654062 0 0 1 84.532750269144,21.573748103365816"/><text text-anchor="middle" pointer-events="none" font-size="8px" fill="#000000" x="61.39772889210966" y="26.699257648550912" font-family="sans-serif">twowheeler</text></g><g class="relationship" transform="translate(97.108347985277 -75.09810382851649) rotate(431.42647741073233)"><path class="outline" fill="#A5ABB6" stroke="none" d="M 25 0.5 L 47.46901350069981 0.5 L 47.46901350069981 -0.5 L 25 -0.5 Z M 69.48073225069982 0.5 L 91.94974575139962 0.5 L 91.94974575139962 3.5 L 98.94974575139962 0 L 91.94974575139962 -3.5 L 91.94974575139962 -0.5 L 69.48073225069982 -0.5 Z"/><text text-anchor="middle" pointer-events="none" font-size="8px" fill="#000000" x="58.47487287569981" y="3" font-family="sans-serif">road</text></g><g class="relationship" transform="translate(97.108347985277 -75.09810382851649) rotate(431.42647741073233)"><path class="outline" fill="#A5ABB6" stroke="none" d="M 21.40063509461097,-12.933012701892217 L 21.90063509461097,-12.06698729810778 A 76.92942902375029 76.92942902375029 0 0 1 35.658228558052514,-18.298078171619366 L 35.33706250545117,-19.24510106820449 A 77.92942902375029 77.92942902375029 0 0 0 21.40063509461097,-12.933012701892217 Z M 81.38673058253212,-20.484786120423735 L 81.11698164122217,-19.521855433062413 A 76.92942902375029 76.92942902375029 0 0 1 95.18989531071458,-14.039978726103111 L 93.83185017196239,-11.364962202581891 L 101.65794138872278,-11.31704282293488 L 97.00062216238415,-17.606667424131405 L 95.64257702363196,-14.931650900610183 A 77.92942902375029 77.92942902375029 0 0 0 81.38673058253212,-20.484786120423735"/><text text-anchor="middle" pointer-events="none" font-size="8px" fill="#000000" x="58.28165722702765" y="-19.84553443576138" font-family="sans-serif">twowheeler</text></g><g class="relationship" transform="translate(57.411323530021534 -19.94909429025728) rotate(479.715686004653)"><path class="outline" fill="#A5ABB6" stroke="none" d="M 21.40063509461097,12.933012701892217 L 21.90063509461097,12.06698729810778 A 54.34952076632051 54.34952076632051 0 0 0 22.740296748372543,12.541880967142887 L 22.255746041060362,13.416644141975517 A 55.34952076632051 55.34952076632051 0 0 1 21.40063509461097,12.933012701892217 Z M 72.70754590822989,15.049804890838132 L 72.28058375746022,14.145535394609198 A 54.34952076632051 54.34952076632051 0 0 0 73.14920066280497,13.72593992104386 L 71.82036805238285,11.03629238029085 L 79.64651702629902,11.073605086851066 L 74.92097747670114,17.312136642047875 L 73.59214486627901,14.622489101294864 A 55.34952076632051 55.34952076632051 0 0 1 72.70754590822989,15.049804890838132"/><text text-anchor="middle" pointer-events="none" font-size="8px" fill="#000000" x="47.30080688601274" y="22.81972756835478" transform="rotate(180 47.30080688601274 19.81972756835478)" font-family="sans-serif">PublicTran…</text></g><g class="relationship" transform="translate(6.820420900798731 68.68980514701181) rotate(348.54567516419206)"><path class="outline" fill="#A5ABB6" stroke="none" d="M 25 0.5 L 53.03485152714781 0.5 L 53.03485152714781 -0.5 L 25 -0.5 Z M 72.37078902714781 0.5 L 100.40564055429562 0.5 L 100.40564055429562 3.5 L 107.40564055429562 0 L 100.40564055429562 -3.5 L 100.40564055429562 -0.5 L 72.37078902714781 -0.5 Z"/><text text-anchor="middle" pointer-events="none" font-size="8px" fill="#000000" x="62.70282027714781" y="3" font-family="sans-serif">trek</text></g><g class="relationship" transform="translate(57.411323530021534 -19.94909429025728) rotate(479.715686004653)"><path class="outline" fill="#A5ABB6" stroke="none" d="M 25 0.5 L 36.524263891287056 0.5 L 36.524263891287056 -0.5 L 25 -0.5 Z M 58.535982641287056 0.5 L 70.06024653257411 0.5 L 70.06024653257411 3.5 L 77.06024653257411 0 L 70.06024653257411 -3.5 L 70.06024653257411 -0.5 L 58.535982641287056 -0.5 Z"/><text text-anchor="middle" pointer-events="none" font-size="8px" fill="#000000" x="47.530123266287056" y="3" transform="rotate(180 47.530123266287056 0)" font-family="sans-serif">road</text></g><g class="relationship" transform="translate(57.411323530021534 -19.94909429025728) rotate(479.715686004653)"><path class="outline" fill="#A5ABB6" stroke="none" d="M 21.40063509461097,-12.933012701892217 L 21.90063509461097,-12.06698729810778 A 54.34952076632051 54.34952076632051 0 0 1 37.8189100289302,-18.169984652769088 L 37.611797154885934,-19.14830170638981 A 55.34952076632051 55.34952076632051 0 0 0 21.40063509461097,-12.933012701892217 Z M 57.012955927320945,-19.77633105465913 L 56.869547992804925,-18.78666739243956 A 54.34952076632051 54.34952076632051 0 0 1 73.14920066280497,-13.72593992104386 L 71.82036805238285,-11.03629238029085 L 79.64651702629902,-11.073605086851066 L 74.92097747670114,-17.312136642047875 L 73.59214486627901,-14.622489101294864 A 55.34952076632051 55.34952076632051 0 0 0 57.012955927320945,-19.77633105465913"/><text text-anchor="middle" pointer-events="none" font-size="8px" fill="#000000" x="47.30080688601273" y="-16.81972756835478" transform="rotate(180 47.30080688601273 -19.81972756835478)" font-family="sans-serif">trek</text></g><g class="relationship" transform="translate(6.820420900798731 68.68980514701181) rotate(452.5212738567204)"><path class="outline" fill="#A5ABB6" stroke="none" d="M 24.018736134675446,-6.953439040707552 L 24.277555179777966,-5.987513214418485 A 135.02391787576852 135.02391787576852 0 0 1 47.70227934921788,-10.095836662639954 L 47.616946043071565,-11.092189123801234 A 136.02391787576852 136.02391787576852 0 0 0 24.018736134675446,-6.953439040707552 Z M 67.00583725547742,-11.36558051050585 L 66.94863025316037,-10.367218172030562 A 135.02391787576852 135.02391787576852 0 0 1 90.47987667853639,-6.920993333489451 L 89.78543171278798,-4.002475526528749 L 97.40549238906942,-5.787041381236641 L 91.40580329953426,-10.812350409437055 L 90.71135833378585,-7.893832602476352 A 136.02391787576852 136.02391787576852 0 0 0 67.00583725547742,-11.36558051050585"/><text text-anchor="middle" pointer-events="none" font-size="8px" fill="#000000" x="57.313563306251396" y="-8.074871110345185" transform="rotate(180 57.313563306251396 -11.074871110345185)" font-family="sans-serif">trek</text></g><g class="relationship" transform="translate(1.4656331591186502 190.29844278597656) rotate(361.28676915252424)"><path class="outline" fill="#A5ABB6" stroke="none" d="M 24.018736134675446,-6.953439040707552 L 24.277555179777966,-5.987513214418485 A 117.0291987148247 117.0291987148247 0 0 1 43.18305112436437,-9.420192664040627 L 43.08577719921653,-10.415450310826799 A 118.0291987148247 118.0291987148247 0 0 0 24.018736134675446,-6.953439040707552 Z M 62.47985148246923,-10.709639146729074 L 62.412809505328255,-9.711888990978139 A 117.0291987148247 117.0291987148247 0 0 1 81.41372390486138,-6.8542121204685245 L 80.72551659695647,-3.9342171373655948 L 88.3417467500857,-5.735060899207561 L 82.3313336487346,-10.747538764605764 L 81.64312634082968,-7.827543781502834 A 118.0291987148247 118.0291987148247 0 0 0 62.47985148246923,-10.709639146729074"/><text text-anchor="middle" pointer-events="none" font-size="8px" fill="#000000" x="52.78434455373879" y="-7.461667132653417" font-family="sans-serif">trek</text></g><g class="relationship" transform="translate(114.11225723186661 192.82872646539212) rotate(331.40295275626397)"><path class="outline" fill="#A5ABB6" stroke="none" d="M 24.018736134675446,6.953439040707552 L 24.277555179777966,5.987513214418485 A 120.58214698313729 120.58214698313729 0 0 0 44.07351634173294,9.554920131974882 L 43.97886721446015,10.55043082639584 A 121.58214698313729 121.58214698313729 0 0 1 24.018736134675446,6.953439040707552 Z M 63.371861107741765,10.840274065303731 L 63.30700495916207,9.84237944161272 A 120.58214698313729 120.58214698313729 0 0 0 83.200735685306,6.868165556107355 L 82.51122504728055,3.948478059122493 L 90.12825828460825,5.745921983545443 L 84.12008320267326,10.761082218753838 L 83.4305725646478,7.841394721768976 A 121.58214698313729 121.58214698313729 0 0 1 63.371861107741765,10.840274065303731"/><text text-anchor="middle" pointer-events="none" font-size="8px" fill="#000000" x="53.67704740415838" y="13.582729075863938" font-family="sans-serif">trek</text></g><g class="relationship" transform="translate(6.820420900798731 68.68980514701181) rotate(452.5212738567204)"><path class="outline" fill="#A5ABB6" stroke="none" d="M 24.018736134675446,6.953439040707552 L 24.277555179777966,5.987513214418485 A 135.02391787576852 135.02391787576852 0 0 0 34.31730022807825,8.271239461047259 L 34.1328364913259,9.25407878149764 A 136.02391787576852 136.02391787576852 0 0 1 24.018736134675446,6.953439040707552 Z M 80.5364119351031,9.90838839103887 L 80.3797329069032,8.920738816482014 A 135.02391787576852 135.02391787576852 0 0 0 90.47987667853639,6.920993333489451 L 89.78543171278798,4.002475526528749 L 97.40549238906942,5.787041381236641 L 91.40580329953426,10.812350409437055 L 90.71135833378585,7.893832602476352 A 136.02391787576852 136.02391787576852 0 0 1 80.5364119351031,9.90838839103887"/><text text-anchor="middle" pointer-events="none" font-size="8px" fill="#000000" x="57.31356330625143" y="14.074871110345185" transform="rotate(180 57.31356330625143 11.074871110345185)" font-family="sans-serif">twowheeler</text></g><g class="relationship" transform="translate(1.4656331591186502 190.29844278597656) rotate(361.28676915252424)"><path class="outline" fill="#A5ABB6" stroke="none" d="M 24.018736134675446,6.953439040707552 L 24.277555179777966,5.987513214418485 A 117.0291987148247 117.0291987148247 0 0 0 29.845916129614068,7.334380072076684 L 29.634678038760452,8.311814708751953 A 118.0291987148247 118.0291987148247 0 0 1 24.018736134675446,6.953439040707552 Z M 75.9885673466923,9.014957149885078 L 75.80707304748769,8.031565153092217 A 117.0291987148247 117.0291987148247 0 0 0 81.41372390486138,6.8542121204685245 L 80.72551659695647,3.9342171373655948 L 88.3417467500857,5.735060899207561 L 82.3313336487346,10.747538764605764 L 81.64312634082968,7.827543781502834 A 118.0291987148247 118.0291987148247 0 0 1 75.9885673466923,9.014957149885078"/><text text-anchor="middle" pointer-events="none" font-size="8px" fill="#000000" x="52.7843445537388" y="13.461667132653417" font-family="sans-serif">twowheeler</text></g><g class="relationship" transform="translate(114.11225723186661 192.82872646539212) rotate(331.40295275626397)"><path class="outline" fill="#A5ABB6" stroke="none" d="M 24.018736134675446,-6.953439040707552 L 24.277555179777966,-5.987513214418485 A 120.58214698313729 120.58214698313729 0 0 1 30.72537264320359,-7.526560997144458 L 30.520026003633266,-8.505250303113002 A 121.58214698313729 121.58214698313729 0 0 0 24.018736134675446,-6.953439040707552 Z M 76.88581084086286,-9.198222689206744 L 76.7098039183542,-8.21383376036357 A 120.58214698313729 120.58214698313729 0 0 1 83.200735685306,-6.868165556107355 L 82.51122504728055,-3.948478059122493 L 90.12825828460825,-5.745921983545443 L 84.12008320267326,-10.761082218753838 L 83.4305725646478,-7.841394721768976 A 121.58214698313729 121.58214698313729 0 0 0 76.88581084086286,-9.198222689206744"/><text text-anchor="middle" pointer-events="none" font-size="8px" fill="#000000" x="53.67704740415834" y="-7.582729075863938" font-family="sans-serif">twowheeler</text></g><g class="relationship" transform="translate(6.820420900798731 68.68980514701181) rotate(252.28079037550833)"><path class="outline" fill="#A5ABB6" stroke="none" d="M 25 0.5 L 46.664490748784445 0.5 L 46.664490748784445 -0.5 L 25 -0.5 Z M 66.00042824878444 0.5 L 87.66491899756889 0.5 L 87.66491899756889 3.5 L 94.66491899756889 0 L 87.66491899756889 -3.5 L 87.66491899756889 -0.5 L 66.00042824878444 -0.5 Z"/><text text-anchor="middle" pointer-events="none" font-size="8px" fill="#000000" x="56.332459498784445" y="3" transform="rotate(180 56.332459498784445 0)" font-family="sans-serif">trek</text></g><g class="relationship" transform="translate(1.4656331591186502 190.29844278597656) rotate(414.22518375756476)"><path class="outline" fill="#A5ABB6" stroke="none" d="M 24.018736134675446,-6.953439040707552 L 24.277555179777966,-5.987513214418485 A 128.1868174213171 128.1868174213171 0 0 1 45.98257456425842,-9.840986018937414 L 45.89307885381005,-10.83697322659188 A 129.1868174213171 129.1868174213171 0 0 0 24.018736134675446,-6.953439040707552 Z M 65.28385422299039,-11.117921096600838 L 65.22325121782491,-10.11975914793473 A 128.1868174213171 128.1868174213171 0 0 1 87.03080020813034,-6.89672855992175 L 86.33862165318361,-3.977672402861415 L 93.95729433376225,-5.768154624556099 L 87.95370494805933,-10.788803436002198 L 87.26152639311259,-7.869747278941863 A 129.1868174213171 129.1868174213171 0 0 0 65.28385422299039,-11.117921096600838"/><text text-anchor="middle" pointer-events="none" font-size="8px" fill="#000000" x="55.590430908974206" y="-7.841868028923642" font-family="sans-serif">trek</text></g><g class="relationship" transform="translate(70.6138689452295 286.2637143542815) rotate(294.96419620444067)"><path class="outline" fill="#A5ABB6" stroke="none" d="M 21.40063509461097,12.933012701892217 L 21.90063509461097,12.06698729810778 A 55.39144279419372 55.39144279419372 0 0 0 38.318332033588526,18.327745008505325 L 38.11472613547133,19.30679793774454 A 56.39144279419372 56.39144279419372 0 0 1 21.40063509461097,12.933012701892217 Z M 57.516521667857724,19.92907051629608 L 57.376071897755985,18.93898271105941 A 55.39144279419372 55.39144279419372 0 0 0 74.16121574340617,13.743137643195265 L 72.83078320658083,11.05428114554492 L 80.6569529940612,11.086937806877854 L 75.93512579250662,17.32827964006239 L 74.60469325568128,14.639423142412046 A 56.39144279419372 56.39144279419372 0 0 1 57.516521667857724,19.92907051629608"/><text text-anchor="middle" pointer-events="none" font-size="8px" fill="#000000" x="47.8046750219944" y="22.959308621442524" font-family="sans-serif">trek</text></g><g class="relationship" transform="translate(1.4656331591186502 190.29844278597656) rotate(414.22518375756476)"><path class="outline" fill="#A5ABB6" stroke="none" d="M 24.018736134675446,6.953439040707552 L 24.277555179777966,5.987513214418485 A 128.1868174213171 128.1868174213171 0 0 0 32.613623148495236,7.925379876872654 L 32.41983472148911,8.906423222275137 A 129.1868174213171 129.1868174213171 0 0 1 24.018736134675446,6.953439040707552 Z M 78.80737356683584,9.578520133586437 L 78.64208867838082,8.592274268881084 A 128.1868174213171 128.1868174213171 0 0 0 87.03080020813034,6.89672855992175 L 86.33862165318361,3.977672402861415 L 93.95729433376225,5.768154624556099 L 87.95370494805933,10.788803436002198 L 87.26152639311259,7.869747278941863 A 129.1868174213171 129.1868174213171 0 0 1 78.80737356683584,9.578520133586437"/><text text-anchor="middle" pointer-events="none" font-size="8px" fill="#000000" x="55.59043090897428" y="13.841868028923642" font-family="sans-serif">twowheeler</text></g><g class="relationship" transform="translate(70.6138689452295 286.2637143542815) rotate(294.96419620444067)"><path class="outline" fill="#A5ABB6" stroke="none" d="M 25 0.5 L 37.02618586224037 0.5 L 37.02618586224037 -0.5 L 25 -0.5 Z M 59.03790461224037 0.5 L 71.06409047448074 0.5 L 71.06409047448074 3.5 L 78.06409047448074 0 L 71.06409047448074 -3.5 L 71.06409047448074 -0.5 L 59.03790461224037 -0.5 Z"/><text text-anchor="middle" pointer-events="none" font-size="8px" fill="#000000" x="48.03204523724037" y="3" font-family="sans-serif">road</text></g><g class="relationship" transform="translate(70.6138689452295 286.2637143542815) rotate(294.96419620444067)"><path class="outline" fill="#A5ABB6" stroke="none" d="M 21.40063509461097,-12.933012701892217 L 21.90063509461097,-12.06698729810778 A 55.39144279419372 55.39144279419372 0 0 1 25.616150600281006,-14.028160461379159 L 25.18322802809734,-14.929591571611041 A 56.39144279419372 56.39144279419372 0 0 0 21.40063509461097,-12.933012701892217 Z M 70.70193374005768,-16.389510182155533 L 70.32766459207052,-15.46219006220506 A 55.39144279419372 55.39144279419372 0 0 1 74.16121574340617,-13.743137643195265 L 72.83078320658083,-11.05428114554492 L 80.6569529940612,-11.086937806877854 L 75.93512579250662,-17.32827964006239 L 74.60469325568128,-14.639423142412046 A 56.39144279419372 56.39144279419372 0 0 0 70.70193374005768,-16.389510182155533"/><text text-anchor="middle" pointer-events="none" font-size="8px" fill="#000000" x="47.80467502199441" y="-16.959308621442524" font-family="sans-serif">twowheeler</text></g><g class="relationship" transform="translate(70.6138689452295 286.2637143542815) rotate(346.33469832181424)"><path class="outline" fill="#A5ABB6" stroke="none" d="M 25 0.5 L 49.06905595268977 0.5 L 49.06905595268977 -0.5 L 25 -0.5 Z M 68.40499345268978 0.5 L 92.47404940537955 0.5 L 92.47404940537955 3.5 L 99.47404940537955 0 L 92.47404940537955 -3.5 L 92.47404940537955 -0.5 L 68.40499345268978 -0.5 Z"/><text text-anchor="middle" pointer-events="none" font-size="8px" fill="#000000" x="58.73702470268977" y="3" font-family="sans-serif">trek</text></g><g class="relationship" transform="translate(191.56435314020604 256.8567534712933) rotate(280.97619646894714)"><path class="outline" fill="#A5ABB6" stroke="none" d="M 25 0.5 L 47.34576373277241 0.5 L 47.34576373277241 -0.5 L 25 -0.5 Z M 66.68170123277241 0.5 L 89.02746496554482 0.5 L 89.02746496554482 3.5 L 96.02746496554482 0 L 89.02746496554482 -3.5 L 89.02746496554482 -0.5 L 66.68170123277241 -0.5 Z"/><text text-anchor="middle" pointer-events="none" font-size="8px" fill="#000000" x="57.01373248277241" y="3" font-family="sans-serif">trek</text></g></g><g class="layer nodes"><g class="node" transform="translate(57.411323530021534,-19.94909429025728)"><circle class="outline" cx="0" cy="0" r="25" fill="#F79767" stroke="#f36924" stroke-width="2px"/><text text-anchor="middle" pointer-events="none" font-family="sans-serif" dy="1.5625" font-size="25" fill="#FFFFFF"/><text text-anchor="middle" pointer-events="none" y="5" font-size="10px" fill="#FFFFFF" font-family="sans-serif"> Darjeeling</text></g><g class="node" transform="translate(214.60812309358414,138.0433201301009)"><circle class="outline" cx="0" cy="0" r="25" fill="#F16667" stroke="#eb2728" stroke-width="2px"/><text text-anchor="middle" pointer-events="none" font-family="sans-serif" dy="1.5625" font-size="25" fill="#FFFFFF"/><text text-anchor="middle" pointer-events="none" y="5" font-size="10px" fill="#FFFFFF" font-family="sans-serif"> Sandak…</text></g><g class="node" transform="translate(114.11225723186661,192.82872646539212)"><circle class="outline" cx="0" cy="0" r="25" fill="#57C7E3" stroke="#23b3d7" stroke-width="2px"/><text text-anchor="middle" pointer-events="none" font-family="sans-serif" dy="1.5625" font-size="25" fill="#2A2C34"/><text text-anchor="middle" pointer-events="none" y="5" font-size="10px" fill="#2A2C34" font-family="sans-serif"> Gurdum</text></g><g class="node" transform="translate(-29.59988963150513,-45.29814956498958)"><circle class="outline" cx="0" cy="0" r="25" fill="#57C7E3" stroke="#23b3d7" stroke-width="2px"/><text text-anchor="middle" pointer-events="none" font-family="sans-serif" dy="1.5625" font-size="25" fill="#2A2C34"/><text text-anchor="middle" pointer-events="none" y="5" font-size="10px" fill="#2A2C34" font-family="sans-serif"> Tumbling</text></g><g class="node" transform="translate(97.108347985277,-75.09810382851649)"><circle class="outline" cx="0" cy="0" r="25" fill="#57C7E3" stroke="#23b3d7" stroke-width="2px"/><text text-anchor="middle" pointer-events="none" font-family="sans-serif" dy="1.5625" font-size="25" fill="#2A2C34"/><text text-anchor="middle" pointer-events="none" y="5" font-size="10px" fill="#2A2C34" font-family="sans-serif"> Gairibus</text></g><g class="node" transform="translate(136.58898144494825,42.39580687948445)"><circle class="outline" cx="0" cy="0" r="25" fill="#57C7E3" stroke="#23b3d7" stroke-width="2px"/><text text-anchor="middle" pointer-events="none" font-family="sans-serif" dy="1.5625" font-size="25" fill="#2A2C34"/><text text-anchor="middle" pointer-events="none" y="5" font-size="10px" fill="#2A2C34" font-family="sans-serif"> BhikeBh…</text></g><g class="node" transform="translate(6.820420900798731,68.68980514701181)"><circle class="outline" cx="0" cy="0" r="25" fill="#F79767" stroke="#f36924" stroke-width="2px"/><text text-anchor="middle" pointer-events="none" font-family="sans-serif" dy="1.5625" font-size="25" fill="#FFFFFF"/><text text-anchor="middle" pointer-events="none" y="5" font-size="10px" fill="#FFFFFF" font-family="sans-serif"> Rimbik</text></g><g class="node" transform="translate(1.4656331591186502,190.29844278597656)"><circle class="outline" cx="0" cy="0" r="25" fill="#57C7E3" stroke="#23b3d7" stroke-width="2px"/><text text-anchor="middle" pointer-events="none" font-family="sans-serif" dy="1.5625" font-size="25" fill="#2A2C34"/><text text-anchor="middle" pointer-events="none" y="5" font-size="10px" fill="#2A2C34" font-family="sans-serif"> Sirikhola</text></g><g class="node" transform="translate(70.6138689452295,286.2637143542815)"><circle class="outline" cx="0" cy="0" r="25" fill="#57C7E3" stroke="#23b3d7" stroke-width="2px"/><text text-anchor="middle" pointer-events="none" font-family="sans-serif" dy="1.5625" font-size="25" fill="#2A2C34"/><text text-anchor="middle" pointer-events="none" y="5" font-size="10px" fill="#2A2C34" font-family="sans-serif"> Rammam</text></g><g class="node" transform="translate(191.56435314020604,256.8567534712933)"><circle class="outline" cx="0" cy="0" r="25" fill="#F16667" stroke="#eb2728" stroke-width="2px"/><text text-anchor="middle" pointer-events="none" font-family="sans-serif" dy="1.5625" font-size="25" fill="#FFFFFF"/><text text-anchor="middle" pointer-events="none" y="5" font-size="10px" fill="#FFFFFF" font-family="sans-serif"> Sabargr…</text></g></g></svg>