<svg xmlns="http://www.w3.org/2000/svg" width="286.84881591796875" height="286.1518859863281" viewBox="-40.88619613647461 -41.094364166259766 286.84881591796875 286.1518859863281"><title>Neo4j Graph Visualization</title><desc>Created using Neo4j (http://www.neo4j.com/)</desc><g class="layer relationships"><g class="relationship" transform="translate(144.22834132795808 216.05752078322976) rotate(250.78857701457525)"><path class="outline" fill="#A5ABB6" stroke="none" d="M 25 0.5 L 37.05319305810648 0.5 L 37.05319305810648 -0.5 L 25 -0.5 Z M 72.82663055810647 0.5 L 84.87982361621296 0.5 L 84.87982361621296 3.5 L 91.87982361621296 0 L 84.87982361621296 -3.5 L 84.87982361621296 -0.5 L 72.82663055810647 -0.5 Z"/><text text-anchor="middle" pointer-events="none" font-size="8px" fill="#000000" x="54.93991180810648" y="3" transform="rotate(180 54.93991180810648 0)" font-family="sans-serif">WROTE</text></g><g class="relationship" transform="translate(216.96262999653382 141.7286298640758) rotate(197.95935442811196)"><path class="outline" fill="#A5ABB6" stroke="none" d="M 25 0.5 L 32.16352776171879 0.5 L 32.16352776171879 -0.5 L 25 -0.5 Z M 77.7260277617188 0.5 L 84.88955552343758 0.5 L 84.88955552343758 3.5 L 91.88955552343758 0 L 84.88955552343758 -3.5 L 84.88955552343758 -0.5 L 77.7260277617188 -0.5 Z"/><text text-anchor="middle" pointer-events="none" font-size="8px" fill="#000000" x="54.94477776171879" y="3" transform="rotate(180 54.94477776171879 0)" font-family="sans-serif">ACTED_IN</text></g><g class="relationship" transform="translate(201.57039528514645 37.86145891288468) rotate(504.7025364869333)"><path class="outline" fill="#A5ABB6" stroke="none" d="M 25 0.5 L 32.409179978323905 0.5 L 32.409179978323905 -0.5 L 25 -0.5 Z M 77.9716799783239 0.5 L 85.38085995664781 0.5 L 85.38085995664781 3.5 L 92.38085995664781 0 L 85.38085995664781 -3.5 L 85.38085995664781 -0.5 L 77.9716799783239 -0.5 Z"/><text text-anchor="middle" pointer-events="none" font-size="8px" fill="#000000" x="55.190429978323905" y="3" transform="rotate(180 55.190429978323905 0)" font-family="sans-serif">ACTED_IN</text></g><g class="relationship" transform="translate(109.73484526554302 -12.09436452136878) rotate(451.92875972187665)"><path class="outline" fill="#A5ABB6" stroke="none" d="M 25 0.5 L 32.6426370754443 0.5 L 32.6426370754443 -0.5 L 25 -0.5 Z M 78.2051370754443 0.5 L 85.8477741508886 0.5 L 85.8477741508886 3.5 L 92.8477741508886 0 L 85.8477741508886 -3.5 L 85.8477741508886 -0.5 L 78.2051370754443 -0.5 Z"/><text text-anchor="middle" pointer-events="none" font-size="8px" fill="#000000" x="55.4238870754443" y="3" transform="rotate(180 55.4238870754443 0)" font-family="sans-serif">ACTED_IN</text></g><g class="relationship" transform="translate(22.310377336012415 23.96476526385873) rotate(404.39778656541444)"><path class="outline" fill="#A5ABB6" stroke="none" d="M 25 0.5 L 32.12191104763636 0.5 L 32.12191104763636 -0.5 L 25 -0.5 Z M 77.68441104763636 0.5 L 84.80632209527272 0.5 L 84.80632209527272 3.5 L 91.80632209527272 0 L 84.80632209527272 -3.5 L 84.80632209527272 -0.5 L 77.68441104763636 -0.5 Z"/><text text-anchor="middle" pointer-events="none" font-size="8px" fill="#000000" x="54.90316104763636" y="3" font-family="sans-serif">ACTED_IN</text></g><g class="relationship" transform="translate(-11.88619738675869 112.1400057117893) rotate(356.8604699777668)"><path class="outline" fill="#A5ABB6" stroke="none" d="M 25 0.5 L 31.97044174522629 0.5 L 31.97044174522629 -0.5 L 25 -0.5 Z M 78.86106674522628 0.5 L 85.83150849045258 0.5 L 85.83150849045258 3.5 L 92.83150849045258 0 L 85.83150849045258 -3.5 L 85.83150849045258 -0.5 L 78.86106674522628 -0.5 Z"/><text text-anchor="middle" pointer-events="none" font-size="8px" fill="#000000" x="55.41575424522629" y="3" font-family="sans-serif">DIRECTED</text></g><g class="relationship" transform="translate(40.02991176417345 202.90556236141265) rotate(304.0661998199675)"><path class="outline" fill="#A5ABB6" stroke="none" d="M 25 0.5 L 38.17937268717463 0.5 L 38.17937268717463 -0.5 L 25 -0.5 Z M 72.17937268717463 0.5 L 85.35874537434925 0.5 L 85.35874537434925 3.5 L 92.35874537434925 0 L 85.35874537434925 -3.5 L 85.35874537434925 -0.5 L 72.17937268717463 -0.5 Z"/><text text-anchor="middle" pointer-events="none" font-size="8px" fill="#000000" x="55.17937268717463" y="3" font-family="sans-serif">WROTe</text></g></g><g class="layer nodes"><g class="node" transform="translate(144.22834132795808,216.05752078322976)"><circle class="outline" cx="0" cy="0" r="25" fill="#57C7E3" stroke="#23b3d7" stroke-width="2px"/><text text-anchor="middle" pointer-events="none" font-family="sans-serif" dy="1.5625" font-size="25" fill="#2A2C34"/><text text-anchor="middle" pointer-events="none" x="0" y="5" font-size="10px" fill="#2A2C34" font-family="sans-serif"> Christop…</text></g><g class="node" transform="translate(105.7684604005434,105.68664270569458)"><circle class="outline" cx="0" cy="0" r="25" fill="#F79767" stroke="#f36924" stroke-width="2px"/><text text-anchor="middle" pointer-events="none" font-family="sans-serif" dy="1.5625" font-size="25" fill="#FFFFFF"/><text text-anchor="middle" pointer-events="none" font-family="sans-serif" dy="1.5625" font-size="25" fill="#FFFFFF"/><text text-anchor="middle" pointer-events="none" font-family="sans-serif" dy="1.5625" font-size="25" fill="#FFFFFF"/><text text-anchor="middle" pointer-events="none" x="0" y="-5" font-size="10px" fill="#FFFFFF" font-family="sans-serif"> Captain</text><text text-anchor="middle" pointer-events="none" x="0" y="5" font-size="10px" fill="#FFFFFF" font-family="sans-serif"> America:</text><text text-anchor="middle" pointer-events="none" x="0" y="15" font-size="10px" fill="#FFFFFF" font-family="sans-serif"> The Fi…</text></g><g class="node" transform="translate(216.96262999653382,141.7286298640758)"><circle class="outline" cx="0" cy="0" r="25" fill="#57C7E3" stroke="#23b3d7" stroke-width="2px"/><text text-anchor="middle" pointer-events="none" font-family="sans-serif" dy="1.5625" font-size="25" fill="#2A2C34"/><text text-anchor="middle" pointer-events="none" font-family="sans-serif" dy="1.5625" font-size="25" fill="#2A2C34"/><text text-anchor="middle" pointer-events="none" x="0" y="0" font-size="10px" fill="#2A2C34" font-family="sans-serif"> Natalie</text><text text-anchor="middle" pointer-events="none" x="0" y="10" font-size="10px" fill="#2A2C34" font-family="sans-serif"> Dormer</text></g><g class="node" transform="translate(201.57039528514645,37.86145891288468)"><circle class="outline" cx="0" cy="0" r="25" fill="#57C7E3" stroke="#23b3d7" stroke-width="2px"/><text text-anchor="middle" pointer-events="none" font-family="sans-serif" dy="1.5625" font-size="25" fill="#2A2C34"/><text text-anchor="middle" pointer-events="none" font-family="sans-serif" dy="1.5625" font-size="25" fill="#2A2C34"/><text text-anchor="middle" pointer-events="none" x="0" y="0" font-size="10px" fill="#2A2C34" font-family="sans-serif"> Dominic</text><text text-anchor="middle" pointer-events="none" x="0" y="10" font-size="10px" fill="#2A2C34" font-family="sans-serif"> Cooper</text></g><g class="node" transform="translate(109.73484526554302,-12.09436452136878)"><circle class="outline" cx="0" cy="0" r="25" fill="#57C7E3" stroke="#23b3d7" stroke-width="2px"/><text text-anchor="middle" pointer-events="none" font-family="sans-serif" dy="1.5625" font-size="25" fill="#2A2C34"/><text text-anchor="middle" pointer-events="none" font-family="sans-serif" dy="1.5625" font-size="25" fill="#2A2C34"/><text text-anchor="middle" pointer-events="none" font-family="sans-serif" dy="1.5625" font-size="25" fill="#2A2C34"/><text text-anchor="middle" pointer-events="none" x="0" y="-5" font-size="10px" fill="#2A2C34" font-family="sans-serif"> Samuel</text><text text-anchor="middle" pointer-events="none" x="0" y="5" font-size="10px" fill="#2A2C34" font-family="sans-serif"> L.</text><text text-anchor="middle" pointer-events="none" x="0" y="15" font-size="10px" fill="#2A2C34" font-family="sans-serif"> Jackson</text></g><g class="node" transform="translate(22.310377336012415,23.96476526385873)"><circle class="outline" cx="0" cy="0" r="25" fill="#57C7E3" stroke="#23b3d7" stroke-width="2px"/><text text-anchor="middle" pointer-events="none" font-family="sans-serif" dy="1.5625" font-size="25" fill="#2A2C34"/><text text-anchor="middle" pointer-events="none" font-family="sans-serif" dy="1.5625" font-size="25" fill="#2A2C34"/><text text-anchor="middle" pointer-events="none" x="0" y="0" font-size="10px" fill="#2A2C34" font-family="sans-serif"> Chris</text><text text-anchor="middle" pointer-events="none" x="0" y="10" font-size="10px" fill="#2A2C34" font-family="sans-serif"> Evans</text></g><g class="node" transform="translate(-11.88619738675869,112.1400057117893)"><circle class="outline" cx="0" cy="0" r="25" fill="#57C7E3" stroke="#23b3d7" stroke-width="2px"/><text text-anchor="middle" pointer-events="none" font-family="sans-serif" dy="1.5625" font-size="25" fill="#2A2C34"/><text text-anchor="middle" pointer-events="none" font-family="sans-serif" dy="1.5625" font-size="25" fill="#2A2C34"/><text text-anchor="middle" pointer-events="none" x="0" y="0" font-size="10px" fill="#2A2C34" font-family="sans-serif"> Joe</text><text text-anchor="middle" pointer-events="none" x="0" y="10" font-size="10px" fill="#2A2C34" font-family="sans-serif"> Johnston</text></g><g class="node" transform="translate(40.02991176417345,202.90556236141265)"><circle class="outline" cx="0" cy="0" r="25" fill="#57C7E3" stroke="#23b3d7" stroke-width="2px"/><text text-anchor="middle" pointer-events="none" font-family="sans-serif" dy="1.5625" font-size="25" fill="#2A2C34"/><text text-anchor="middle" pointer-events="none" font-family="sans-serif" dy="1.5625" font-size="25" fill="#2A2C34"/><text text-anchor="middle" pointer-events="none" x="0" y="0" font-size="10px" fill="#2A2C34" font-family="sans-serif"> Stephen</text><text text-anchor="middle" pointer-events="none" x="0" y="10" font-size="10px" fill="#2A2C34" font-family="sans-serif"> McFeely</text></g></g></svg>